<svg width="37" height="22" viewBox="0 0 37 22" fill="none" xmlns="http://www.w3.org/2000/svg">
    <circle cx="22.75" cy="7.75" r="7.75" fill="#E0D0FA"/>
    <path fill-rule="evenodd" clip-rule="evenodd"
          d="M14.0884 6.50165C9.88278 6.58768 6.5 10.0238 6.5 14.25C6.5 18.5302 9.96979 22 14.25 22C17.7711 22 20.7437 19.6519 21.6874 16.4361C17.356 15.9118 14 12.2228 14 7.75C14 7.32617 14.0301 6.90938 14.0884 6.50165Z"
          fill="#E0D0FA"/>
    <path fill-rule="evenodd" clip-rule="evenodd"
          d="M28.4929 14.3518C27.9602 14.8156 27.3708 15.216 26.7365 15.5412C27.8222 16.4518 29.2221 17 30.75 17C34.2018 17 37 14.2018 37 10.75C37 7.34068 34.2702 4.56893 30.877 4.50128C31.1367 5.15023 31.3209 5.83752 31.4187 6.55232C33.4482 6.87307 35 8.63032 35 10.75C35 13.0972 33.0972 15 30.75 15C29.9207 15 29.1469 14.7625 28.4929 14.3518Z"
          fill="#E0D0FA"/>
    <path fill-rule="evenodd" clip-rule="evenodd"
          d="M2 10.75C2 8.40279 3.90279 6.5 6.25 6.5C7.22258 6.5 8.11886 6.82669 8.83508 7.37632C9.38209 6.94481 9.98184 6.57719 10.6231 6.28474C9.49592 5.18068 7.95245 4.5 6.25 4.5C2.79822 4.5 0 7.29822 0 10.75C0 14.0973 2.63136 16.83 5.93836 16.9924C5.72274 16.3385 5.58213 15.6506 5.52671 14.9387C3.52402 14.5953 2 12.8506 2 10.75Z"
          fill="#E0D0FA"/>
</svg>
