<svg width="180" height="135" viewBox="0 0 180 135" fill="none" xmlns="http://www.w3.org/2000/svg">
    <path d="M171.345 45.5643C171.534 44.4918 171.511 43.3924 171.276 42.3289C171.04 41.2655 170.598 40.2588 169.973 39.3663C169.348 38.4738 168.554 37.713 167.635 37.1274C166.716 36.5418 165.691 36.1427 164.618 35.9531C163.545 35.7635 162.445 35.7869 161.381 36.0222C160.317 36.2574 159.31 36.6998 158.417 37.3241C156.613 38.5849 155.385 40.5102 155.002 42.6762L148.282 80.4359L164.692 83.2837L171.345 45.5643Z"
          fill="url(#paint0_linear_6_4509)"/>
    <path d="M156.991 31.5C157.372 29.334 156.877 27.1052 155.614 25.304C154.352 23.5028 152.425 22.2768 150.258 21.8956C148.09 21.5144 145.86 22.0092 144.058 23.2713C142.256 24.5334 141.029 26.4593 140.648 28.6254L132.02 77.5612L148.363 80.4359L156.991 31.5Z"
          fill="url(#paint1_linear_6_4509)"/>
    <path d="M139.223 36.7926C139.55 34.6488 139.024 32.4623 137.758 30.701C136.493 28.9396 134.588 27.7432 132.451 27.3677C130.314 26.9921 128.115 27.4672 126.324 28.6913C124.533 29.9155 123.292 31.7914 122.867 33.918L115.69 74.6867L132.033 77.5613L139.223 36.7926Z"
          fill="url(#paint2_linear_6_4509)"/>
    <path d="M121.08 44.1672C121.269 43.0947 121.244 41.9955 121.008 40.9324C120.772 39.8693 120.328 38.8631 119.703 37.9712C119.078 37.0793 118.283 36.3193 117.364 35.7345C116.445 35.1497 115.419 34.7515 114.346 34.5628C113.273 34.374 112.173 34.3984 111.11 34.6344C110.046 34.8705 109.039 35.3136 108.147 35.9385C107.255 36.5635 106.494 37.3579 105.909 38.2766C105.324 39.1952 104.926 40.2201 104.737 41.2926L99.3609 71.812L115.704 74.6866L121.08 44.1672Z"
          fill="url(#paint3_linear_6_4509)"/>
    <path d="M164.759 82.9746C164.759 82.9746 161.413 101.901 159.182 114.555C156.951 127.209 145.486 136.679 122.303 132.595C99.1189 128.512 91.5926 115.71 93.8236 103.043C96.0547 90.3761 99.4549 71.4626 99.4549 71.4626L164.759 82.9746Z"
          fill="url(#paint4_linear_6_4509)"/>
    <path d="M161.09 85.809C152.193 85.2583 137.382 87.3672 128.189 103.205C121.846 114.166 120.529 132.206 125.582 133.093L133.955 134.57C137.288 135.161 155.822 137.767 170.041 117.108C179.113 103.876 180.027 75.0493 180 71.9329C179.973 68.8165 179.086 65.2165 174.436 64.3568C171.089 63.7523 166.251 64.518 163.496 73.8941C161.01 82.3031 161.09 85.809 161.09 85.809Z"
          fill="url(#paint5_linear_6_4509)"/>
    <path style="mix-blend-mode:overlay" opacity="0.3"
          d="M150.526 109.975C141.683 116.691 131.711 118.451 128.162 113.843C124.614 109.236 128.955 100.048 137.785 93.3045C146.615 86.5612 156.601 84.8284 160.149 89.4358C163.697 94.0433 159.383 103.231 150.526 109.975Z"
          fill="url(#paint6_radial_6_4509)"/>
    <path d="M8.65527 45.5643C8.27209 43.3983 8.76551 41.1688 10.027 39.3663C11.2885 37.5639 13.2147 36.3361 15.3819 35.9531C17.5491 35.5701 19.7798 36.0633 21.5832 37.3242C23.3865 38.585 24.615 40.5102 24.9981 42.6763L31.6509 80.436L15.308 83.2837L8.65527 45.5643Z"
          fill="url(#paint7_linear_6_4509)"/>
    <path d="M23.009 31.5C22.6276 29.334 23.1228 27.1052 24.3855 25.304C25.6483 23.5028 27.5752 22.2768 29.7424 21.8956C31.9096 21.5144 34.1395 22.0092 35.9417 23.2713C37.7438 24.5334 38.9705 26.4593 39.3519 28.6254L47.9803 77.5612L31.6374 80.4359L23.009 31.5Z"
          fill="url(#paint8_linear_6_4509)"/>
    <path d="M40.7765 36.7925C40.3951 34.6265 40.8903 32.3977 42.153 30.5965C43.4158 28.7953 45.3427 27.5692 47.5099 27.188C49.6771 26.8068 51.907 27.3017 53.7092 28.5638C55.5113 29.8259 56.738 31.7518 57.1194 33.9179L64.3097 74.6866L47.9668 77.5612L40.7765 36.7925Z"
          fill="url(#paint9_linear_6_4509)"/>
    <path d="M58.9069 44.1672C58.5805 42.0233 59.1064 39.8368 60.3721 38.0755C61.6378 36.3141 63.5428 35.1177 65.6797 34.7422C67.8167 34.3666 70.0158 34.8417 71.8067 36.0658C73.5977 37.29 74.8383 39.166 75.2632 41.2925L80.6391 71.8119L64.2963 74.6866L58.9069 44.1672Z"
          fill="url(#paint10_linear_6_4509)"/>
    <path d="M15.2408 82.9746L20.8049 114.555C23.0359 127.209 34.5001 136.679 57.6704 132.595C80.8407 128.512 88.3671 115.71 86.136 103.043L80.6391 71.4626L15.2408 82.9746Z"
          fill="url(#paint11_linear_6_4509)"/>
    <path d="M18.9099 85.8091C27.8071 85.2583 42.6178 87.3673 51.7972 103.205C58.1543 114.166 59.4579 132.206 54.4852 133.093L46.0987 134.57C42.7656 135.161 24.2321 137.767 10.0261 117.108C0.873591 103.822 0 74.9956 0 71.8792C0 68.7628 0.90047 65.1628 5.55066 64.3031C8.91063 63.6986 13.7355 64.4643 16.4907 73.8404C18.9905 82.3031 18.9099 85.8091 18.9099 85.8091Z"
          fill="url(#paint12_linear_6_4509)"/>
    <path style="mix-blend-mode:overlay" opacity="0.3"
          d="M29.4467 109.975C38.2767 116.691 48.2625 118.451 51.8106 113.843C55.3588 109.236 51.0715 100.048 42.1743 93.3045C33.2771 86.5612 23.3585 84.8284 19.8238 89.4358C16.2891 94.0433 20.6167 103.231 29.4467 109.975Z"
          fill="url(#paint13_radial_6_4509)"/>
    <path d="M88.609 21.7747L83.9453 8.52996C83.4152 6.93508 83.5332 5.19585 84.2739 3.6871C85.0147 2.17835 86.3188 1.02088 87.9054 0.464121C89.4919 -0.0926381 91.2338 -0.00410479 92.7556 0.710641C94.2775 1.42539 95.4574 2.70912 96.0412 4.28519C96.5314 5.65771 96.5314 7.15745 96.0412 8.52996L91.391 21.7747C91.2602 22.1429 90.9887 22.4443 90.6361 22.613C90.2835 22.7816 89.8784 22.8038 89.5094 22.6747C89.2998 22.6048 89.1093 22.4871 88.953 22.3309C88.7967 22.1747 88.6789 21.9843 88.609 21.7747Z"
          fill="url(#paint14_linear_6_4509)"/>
    <path d="M110.301 12.6134C108.948 12.0464 107.425 12.0392 106.067 12.5932C104.709 13.1473 103.626 14.2174 103.057 15.5686L98.3529 26.7447C98.2803 26.9879 98.2782 27.2467 98.3467 27.4911C98.4153 27.7354 98.5517 27.9554 98.7401 28.1255C98.9286 28.2956 99.1614 28.4088 99.4116 28.4521C99.6618 28.4954 99.9191 28.467 100.154 28.3701L110.798 22.5805C111.716 22.083 112.474 21.3365 112.985 20.4271C113.496 19.5177 113.74 18.4824 113.688 17.4406C113.636 16.3987 113.29 15.3928 112.691 14.5387C112.092 13.6846 111.263 13.0172 110.301 12.6134Z"
          fill="url(#paint15_linear_6_4509)"/>
    <path d="M76.9432 15.5687C76.599 14.7551 76.065 14.0357 75.3858 13.4705C74.7066 12.9053 73.9019 12.5109 73.039 12.3201C72.1761 12.1293 71.28 12.1477 70.4257 12.3738C69.5714 12.5999 68.7836 13.0271 68.1282 13.6197C67.4728 14.2123 66.9689 14.9531 66.6585 15.7801C66.3481 16.6072 66.2403 17.4965 66.3441 18.3737C66.4479 19.2509 66.7602 20.0905 67.2551 20.8224C67.7499 21.5543 68.4128 22.1572 69.1884 22.5806L79.8462 28.3702C80.0802 28.4634 80.3358 28.4891 80.5837 28.4441C80.8317 28.3992 81.0619 28.2855 81.2483 28.116C81.4347 27.9465 81.5697 27.7281 81.6378 27.4857C81.7059 27.2432 81.7045 26.9865 81.6337 26.7448L76.9432 15.5687Z"
          fill="url(#paint16_linear_6_4509)"/>
    <defs>
        <linearGradient id="paint0_linear_6_4509" x1="152.552" y1="63.1624" x2="170.814" y2="54.3752"
                        gradientUnits="userSpaceOnUse">
            <stop stop-color="#9483C9"/>
            <stop offset="1" stop-color="#7F6BB5"/>
        </linearGradient>
        <linearGradient id="paint1_linear_6_4509" x1="138.631" y1="52.5313" x2="159.468" y2="46.592"
                        gradientUnits="userSpaceOnUse">
            <stop stop-color="#9483C9"/>
            <stop offset="1" stop-color="#7F6BB5"/>
        </linearGradient>
        <linearGradient id="paint2_linear_6_4509" x1="120.094" y1="55.4467" x2="141.09" y2="46.8619"
                        gradientUnits="userSpaceOnUse">
            <stop stop-color="#9483C9"/>
            <stop offset="1" stop-color="#7F6BB5"/>
        </linearGradient>
        <linearGradient id="paint3_linear_6_4509" x1="103.922" y1="59.2738" x2="126.924" y2="44.4982"
                        gradientUnits="userSpaceOnUse">
            <stop stop-color="#9483C9"/>
            <stop offset="1" stop-color="#7F6BB5"/>
        </linearGradient>
        <linearGradient id="paint4_linear_6_4509" x1="127.425" y1="80.1227" x2="131.861" y2="121.14"
                        gradientUnits="userSpaceOnUse">
            <stop stop-color="#9483C9"/>
            <stop offset="1" stop-color="#7F6BB5"/>
        </linearGradient>
        <linearGradient id="paint5_linear_6_4509" x1="152.667" y1="97.2052" x2="141.629" y2="134.13"
                        gradientUnits="userSpaceOnUse">
            <stop stop-color="#ADA4DD"/>
            <stop offset="1" stop-color="#7F6BB5"/>
        </linearGradient>
        <radialGradient id="paint6_radial_6_4509" cx="0" cy="0" r="1" gradientUnits="userSpaceOnUse"
                        gradientTransform="translate(148.02 93.6595) rotate(52.2387) scale(10.4609 20.1758)">
            <stop offset="0.23" stop-color="white"/>
            <stop offset="0.44" stop-color="white" stop-opacity="0.73"/>
            <stop offset="0.95" stop-color="white" stop-opacity="0.07"/>
            <stop offset="1" stop-color="white" stop-opacity="0"/>
        </radialGradient>
        <linearGradient id="paint7_linear_6_4509" x1="31.2915" y1="61.2751" x2="13.0291" y2="52.4879"
                        gradientUnits="userSpaceOnUse">
            <stop stop-color="#9483C9"/>
            <stop offset="1" stop-color="#7F6BB5"/>
        </linearGradient>
        <linearGradient id="paint8_linear_6_4509" x1="45.214" y1="50.6571" x2="24.3751" y2="44.7047"
                        gradientUnits="userSpaceOnUse">
            <stop stop-color="#9483C9"/>
            <stop offset="1" stop-color="#7F6BB5"/>
        </linearGradient>
        <linearGradient id="paint9_linear_6_4509" x1="63.7487" y1="53.5593" x2="42.7688" y2="44.9853"
                        gradientUnits="userSpaceOnUse">
            <stop stop-color="#9483C9"/>
            <stop offset="1" stop-color="#7F6BB5"/>
        </linearGradient>
        <linearGradient id="paint10_linear_6_4509" x1="79.9205" y1="57.3864" x2="56.9344" y2="42.6217"
                        gradientUnits="userSpaceOnUse">
            <stop stop-color="#9483C9"/>
            <stop offset="1" stop-color="#7F6BB5"/>
        </linearGradient>
        <linearGradient id="paint11_linear_6_4509" x1="56.431" y1="78.2331" x2="51.9819" y2="119.253"
                        gradientUnits="userSpaceOnUse">
            <stop stop-color="#9483C9"/>
            <stop offset="1" stop-color="#7F6BB5"/>
        </linearGradient>
        <linearGradient id="paint12_linear_6_4509" x1="31.176" y1="95.3179" x2="42.2267" y2="132.24"
                        gradientUnits="userSpaceOnUse">
            <stop stop-color="#ADA4DD"/>
            <stop offset="1" stop-color="#7F6BB5"/>
        </linearGradient>
        <radialGradient id="paint13_radial_6_4509" cx="0" cy="0" r="1" gradientUnits="userSpaceOnUse"
                        gradientTransform="translate(29.7752 89.1566) rotate(127.761) scale(10.4609 20.1758)">
            <stop offset="0.23" stop-color="white"/>
            <stop offset="0.44" stop-color="white" stop-opacity="0.73"/>
            <stop offset="0.95" stop-color="white" stop-opacity="0.07"/>
            <stop offset="1" stop-color="white" stop-opacity="0"/>
        </radialGradient>
        <linearGradient id="paint14_linear_6_4509" x1="88.8912" y1="2.56579" x2="95.7389" y2="26.411"
                        gradientUnits="userSpaceOnUse">
            <stop stop-color="#9483C9"/>
            <stop offset="1" stop-color="#7F6BB5"/>
        </linearGradient>
        <linearGradient id="paint15_linear_6_4509" x1="103.836" y1="14.7223" x2="108.039" y2="29.3384"
                        gradientUnits="userSpaceOnUse">
            <stop stop-color="#9483C9"/>
            <stop offset="1" stop-color="#7F6BB5"/>
        </linearGradient>
        <linearGradient id="paint16_linear_6_4509" x1="71.5269" y1="14.1179" x2="77.1931" y2="33.8524"
                        gradientUnits="userSpaceOnUse">
            <stop stop-color="#9483C9"/>
            <stop offset="1" stop-color="#7F6BB5"/>
        </linearGradient>
    </defs>
</svg>
